<svg width="120" height="120" viewBox="0 0 120 120" fill="none" xmlns="http://www.w3.org/2000/svg" role="img" aria-label="Talegate portal mark">
  <defs>
    <linearGradient id="tgBg" x1="60" y1="4" x2="60" y2="116" gradientUnits="userSpaceOnUse">
      <stop offset="0" stop-color="#0C111E"></stop>
      <stop offset="1" stop-color="#18233A"></stop>
    </linearGradient>
    <linearGradient id="tgStone" x1="30" y1="28" x2="92" y2="94" gradientUnits="userSpaceOnUse">
      <stop offset="0" stop-color="#4A5468"></stop>
      <stop offset="0.55" stop-color="#2C3447"></stop>
      <stop offset="1" stop-color="#1A2132"></stop>
    </linearGradient>
    <linearGradient id="tgNeon" x1="60" y1="32" x2="60" y2="90" gradientUnits="userSpaceOnUse">
      <stop offset="0" stop-color="#AFEEFF"></stop>
      <stop offset="0.5" stop-color="#54ABFF"></stop>
      <stop offset="1" stop-color="#2E6BFF"></stop>
    </linearGradient>
    <radialGradient id="tgMist" cx="0.5" cy="0.58" r="0.55">
      <stop offset="0" stop-color="#BFE6FF" stop-opacity="0.55"></stop>
      <stop offset="1" stop-color="#BFE6FF" stop-opacity="0"></stop>
    </radialGradient>
    <filter id="tgSoft" x="-60%" y="-60%" width="220%" height="220%"><feGaussianBlur stdDeviation="4"></feGaussianBlur></filter>
    <filter id="tgSoft2" x="-60%" y="-60%" width="220%" height="220%"><feGaussianBlur stdDeviation="1.3"></feGaussianBlur></filter>
  </defs>
  <rect x="4" y="4" width="112" height="112" rx="30" fill="url(#tgBg)"></rect>
  <ellipse cx="60" cy="63" rx="19" ry="27" fill="url(#tgMist)"></ellipse>
  <g fill="url(#tgStone)" stroke="#0E1422" stroke-width="0.8">
    <rect x="40" y="86" width="40" height="6" rx="3"></rect>
    <rect x="33" y="91.5" width="54" height="7" rx="3.5"></rect>
    <rect x="25" y="98" width="70" height="8" rx="4"></rect>
  </g>
  <rect x="41" y="86" width="38" height="2" rx="1" fill="#5AA6FF" opacity="0.55" filter="url(#tgSoft2)"></rect>
  <path d="M30,88 L30,60 A30,30 0 0 1 90,60 L90,88 L78,88 L78,60 A18,18 0 0 0 42,60 L42,88 Z" fill="url(#tgStone)" stroke="#0E1422" stroke-width="1"></path>
  <path d="M36 60 A24 24 0 0 1 84 60" stroke="#5A footer" stroke-width="0"></path>
  <path d="M42,88 L42,60 A18,18 0 0 1 78,60 L78,88" fill="none" stroke="#2E72FF" stroke-width="9" stroke-linecap="round" filter="url(#tgSoft)" opacity="0.85"></path>
  <path d="M42,88 L42,60 A18,18 0 0 1 78,60 L78,88" fill="none" stroke="url(#tgNeon)" stroke-width="3.4" stroke-linecap="round" filter="url(#tgSoft2)"></path>
  <path d="M42,88 L42,60 A18,18 0 0 1 78,60 L78,88" fill="none" stroke="#EAF8FF" stroke-width="1.2" stroke-linecap="round" opacity="0.9"></path>
</svg>